<svg width="400" height="120" viewBox="0 0 400 120" fill="none" xmlns="http://www.w3.org/2000/svg">
    <style>
        .title { font: bold 18px 'Segoe UI', Ubuntu, Sans-Serif; fill: #4299E1; }
        .desc { font: 14px 'Segoe UI', Ubuntu, Sans-Serif; fill: #FFFFFF; }
        .stat { font: 12px 'Segoe UI', Ubuntu, Sans-Serif; fill: #FFFFFF; }
    </style>
    <rect x="0.5" y="0.5" width="399" height="119" rx="4.5" fill="#1F222E" stroke="none"/>
    <g transform="translate(25, 35)">
        <svg x="0" y="-13" viewBox="0 0 16 16" version="1.1" width="16" height="16">
            <path fill="#F8D866" d="M2 2.5A2.5 2.5 0 014.5 0h8.75a.75.75 0 01.75.75v12.5a.75.75 0 01-.75.75h-2.5a.75.75 0 110-1.5h1.75v-2h-8a1 1 0 00-.714 1.7a.75.75 0 01-1.072 1.05A2.495 2.495 0 012 11.5v-9zm10.5-1V9h-8c-.356 0-.694.074-1 .208V2.5a1 1 0 011-1h8zM5 12.25v3.25a.25.25 0 00.4.2l1.45-1.087a.25.25 0 01.3 0L8.6 15.7a.25.25 0 00.4-.2v-3.25a.25.25 0 00-.25-.25h-3.5a.25.25 0 00-.25.25z"></path>
        </svg>
        <text x="25" y="0" class="title">Tawheed AI</text>
    </g>
    <g transform="translate(25, 65)">
        <text x="0" y="0" class="desc">AI-Powered Islamic Knowledge &amp; Guidance System</text>
    </g>
    <g transform="translate(25, 95)">
        <circle cx="5" cy="-4" r="5" fill="#4299E1" />
        <text x="15" y="0" class="stat">Live Solution 🚀</text>
    </g>
</svg>
